<?xml version="1.0" encoding="utf-8"?>
<!-- Generator: Adobe Illustrator 27.2.0, SVG Export Plug-In . SVG Version: 6.00 Build 0)  -->
<svg version="1.1" id="Calque_1" xmlns="http://www.w3.org/2000/svg" xmlns:xlink="http://www.w3.org/1999/xlink" x="0px" y="0px"
	 viewBox="0 0 74 17" style="enable-background:new 0 0 74 17;" xml:space="preserve">
<style type="text/css">
	.st0{fill:#020203;}
	.st1{fill:#FEEB1A;}
	.st2{fill:none;}
</style>
<path class="st0" d="M11.6,1.96c1.22,1.22,1.82,2.68,1.82,4.38c0,1.72-0.61,3.19-1.82,4.39c-1.22,1.22-2.68,1.82-4.39,1.82
	s-3.18-0.61-4.38-1.82C1.61,9.52,1,8.06,1,6.34s0.61-3.18,1.82-4.38C4.04,0.74,5.5,0.14,7.21,0.14C8.92,0.14,10.39,0.74,11.6,1.96z
	 M7.21,0.83c-1.52,0-2.81,0.54-3.89,1.62S1.7,4.82,1.7,6.34s0.54,2.82,1.62,3.9s2.37,1.62,3.89,1.62s2.82-0.54,3.9-1.62
	c1.08-1.08,1.62-2.38,1.62-3.9s-0.54-2.81-1.62-3.89S8.74,0.83,7.21,0.83z"/>
<path class="st0" d="M24.48,1.95v9.15H23.8V1.41l-7.85,11.01h-1.05V0.31h0.69v11.28L23.42,0.5C23.42,0.5,24.48,1.95,24.48,1.95z"/>
<path class="st0" d="M35.42,0.31V1h-8.35v5.02h8.35v0.69h-8.35v5.03h8.35v0.69h-9.04V0.31H35.42z"/>
<path class="st0" d="M40.59,1v11.42h-0.68V1h-3.07V0.31h6.8V1H40.59z"/>
<path class="st0" d="M50.94,0.31V1h-5.36v5.02h5.36v0.69h-5.36v5.03h5.36v0.69h-6.05V0.31H50.94z"/>
<path class="st0" d="M57.04,0.31l4.39,12.11h-0.72l-1.94-5.33h-4.19l-1.97,5.32h-0.73L56.33,0.3L57.04,0.31L57.04,0.31z M58.53,6.41
	l-1.84-5.08l-1.84,5.08H58.53z"/>
<path class="st0" d="M73,0.31v12.11h-0.69V1.05l-4.69,6.14l-4.69-6.14v11.36h-0.69V0.31h0.99l4.38,5.74L72,0.31
	C72,0.31,73,0.31,73,0.31z"/>
<polygon class="st1" points="25.54,0.31 22.27,0.31 19.49,4.14 19.49,8.68 22.27,5.87 22.27,12.42 25.54,12.42 "/>
<path class="st2" d="M37.09,15.93c0,0.14,0.05,0.25,0.15,0.34c0.1,0.09,0.23,0.14,0.39,0.14c0.25,0,0.47-0.1,0.66-0.3l-0.73-0.74
	C37.25,15.49,37.09,15.69,37.09,15.93z"/>
<path class="st2" d="M64.56,15c-0.1-0.06-0.21-0.09-0.32-0.09c-0.12,0-0.23,0.03-0.32,0.09c-0.1,0.06-0.19,0.14-0.25,0.25
	c-0.06,0.11-0.1,0.24-0.1,0.39c0,0.15,0.03,0.28,0.1,0.39c0.06,0.12,0.15,0.2,0.25,0.25c0.1,0.06,0.21,0.09,0.32,0.09
	c0.12,0,0.23-0.03,0.32-0.09c0.1-0.06,0.19-0.15,0.25-0.25s0.09-0.25,0.09-0.39s-0.03-0.28-0.09-0.39
	C64.74,15.15,64.67,15.06,64.56,15z"/>
<path class="st2" d="M45.2,15c-0.1-0.06-0.21-0.08-0.32-0.08c-0.12,0-0.23,0.03-0.32,0.08c-0.1,0.06-0.18,0.14-0.24,0.25
	c-0.06,0.11-0.09,0.25-0.09,0.4c0,0.24,0.06,0.42,0.18,0.55c0.12,0.13,0.27,0.2,0.45,0.2c0.12,0,0.23-0.03,0.32-0.09
	c0.1-0.06,0.19-0.14,0.25-0.25c0.06-0.11,0.1-0.25,0.1-0.4c0-0.16-0.03-0.29-0.09-0.4C45.38,15.14,45.3,15.05,45.2,15z"/>
<path class="st2" d="M31.55,14.9c-0.16,0-0.29,0.05-0.4,0.15c-0.11,0.1-0.18,0.24-0.2,0.4h1.21c0-0.17-0.06-0.3-0.18-0.4
	C31.87,14.95,31.73,14.9,31.55,14.9z"/>
<path class="st2" d="M34.52,15c-0.1-0.06-0.22-0.09-0.32-0.09c-0.12,0-0.23,0.03-0.32,0.09c-0.1,0.06-0.19,0.15-0.25,0.25
	c-0.06,0.11-0.1,0.25-0.1,0.39s0.03,0.28,0.1,0.39c0.06,0.11,0.15,0.2,0.25,0.25c0.1,0.06,0.21,0.09,0.32,0.09
	c0.12,0,0.23-0.03,0.32-0.09c0.1-0.06,0.19-0.15,0.25-0.25c0.06-0.12,0.1-0.25,0.1-0.39s-0.03-0.28-0.1-0.39
	C34.71,15.14,34.62,15.06,34.52,15z"/>
<path class="st2" d="M69.75,15c-0.1-0.06-0.21-0.08-0.32-0.08c-0.12,0-0.23,0.03-0.32,0.08c-0.1,0.06-0.18,0.14-0.24,0.25
	s-0.09,0.25-0.09,0.4c0,0.24,0.06,0.42,0.18,0.55c0.12,0.13,0.27,0.2,0.45,0.2c0.12,0,0.23-0.03,0.32-0.09
	c0.1-0.06,0.19-0.14,0.25-0.25s0.1-0.25,0.1-0.4c0-0.16-0.03-0.29-0.09-0.4C69.94,15.14,69.85,15.05,69.75,15z"/>
<polygon class="st0" points="29.2,16.22 28.63,13.99 28.12,13.99 27.5,16.24 26.93,13.99 26.45,13.99 27.23,16.75 27.74,16.75 
	28.36,14.66 28.94,16.75 29.45,16.75 30.26,13.99 29.78,13.99 "/>
<path class="st0" d="M32.12,14.66c-0.16-0.09-0.34-0.14-0.55-0.14c-0.22,0-0.4,0.05-0.57,0.14c-0.17,0.09-0.29,0.23-0.38,0.39
	c-0.09,0.17-0.14,0.37-0.14,0.59c0,0.23,0.05,0.42,0.14,0.59c0.1,0.17,0.23,0.3,0.39,0.39s0.35,0.14,0.56,0.14
	c0.25,0,0.47-0.07,0.65-0.2s0.29-0.29,0.36-0.49h-0.49c-0.1,0.21-0.27,0.3-0.52,0.3c-0.17,0-0.31-0.05-0.43-0.16
	s-0.18-0.25-0.2-0.42h1.67c0.01-0.07,0.02-0.14,0.02-0.23c0-0.22-0.05-0.4-0.14-0.56C32.41,14.85,32.29,14.75,32.12,14.66z
	 M30.96,15.45c0.02-0.17,0.09-0.3,0.2-0.4s0.25-0.15,0.4-0.15c0.18,0,0.31,0.05,0.43,0.15c0.12,0.1,0.18,0.24,0.18,0.4H30.96z"/>
<path class="st0" d="M34.82,14.66c-0.16-0.09-0.33-0.14-0.52-0.14c-0.17,0-0.31,0.03-0.45,0.1c-0.14,0.07-0.24,0.16-0.31,0.25V13.8
	h-0.45v2.93h0.45v-0.31c0.08,0.11,0.18,0.19,0.31,0.25c0.13,0.07,0.28,0.1,0.45,0.1c0.19,0,0.36-0.05,0.52-0.15
	c0.16-0.1,0.28-0.24,0.37-0.4c0.09-0.18,0.14-0.37,0.14-0.59c0-0.22-0.05-0.41-0.14-0.59C35.09,14.88,34.98,14.76,34.82,14.66z
	 M34.77,16.04c-0.06,0.12-0.15,0.2-0.25,0.25c-0.1,0.06-0.22,0.09-0.32,0.09c-0.12,0-0.23-0.03-0.32-0.09
	c-0.1-0.06-0.19-0.15-0.25-0.25c-0.06-0.11-0.1-0.25-0.1-0.39s0.03-0.28,0.1-0.39c0.06-0.11,0.15-0.2,0.25-0.25
	c0.1-0.06,0.21-0.09,0.32-0.09c0.12,0,0.23,0.03,0.32,0.09c0.1,0.06,0.19,0.14,0.25,0.25c0.06,0.11,0.1,0.24,0.1,0.39
	C34.86,15.8,34.83,15.92,34.77,16.04z"/>
<path class="st0" d="M38.53,15.77l-0.73-0.73c-0.1-0.11-0.18-0.21-0.22-0.27c-0.04-0.07-0.06-0.14-0.06-0.22
	c0-0.08,0.03-0.14,0.08-0.19c0.05-0.05,0.13-0.08,0.22-0.08c0.09,0,0.16,0.03,0.21,0.08s0.08,0.13,0.07,0.23h0.45
	c0.01-0.13-0.01-0.25-0.07-0.34c-0.06-0.11-0.14-0.19-0.25-0.25c-0.11-0.06-0.25-0.09-0.4-0.09s-0.28,0.03-0.4,0.09
	c-0.12,0.06-0.21,0.13-0.26,0.23c-0.06,0.1-0.1,0.21-0.1,0.32c0,0.1,0.02,0.19,0.05,0.26c0.03,0.08,0.09,0.17,0.17,0.25
	c-0.22,0.09-0.37,0.21-0.48,0.35c-0.11,0.15-0.17,0.32-0.17,0.51c0,0.17,0.04,0.31,0.13,0.44c0.08,0.13,0.2,0.23,0.35,0.29
	c0.15,0.07,0.32,0.11,0.52,0.11c0.2,0,0.36-0.03,0.52-0.1c0.16-0.07,0.3-0.17,0.43-0.29l0.34,0.34h0.59L38.53,15.77L38.53,15.77z
	 M37.63,16.41c-0.16,0-0.28-0.05-0.39-0.14c-0.1-0.09-0.15-0.21-0.15-0.34c0-0.25,0.16-0.44,0.47-0.56l0.73,0.74
	C38.1,16.31,37.88,16.41,37.63,16.41z"/>
<path class="st0" d="M41.62,14.47c0.15-0.08,0.3-0.13,0.49-0.13c0.17,0,0.31,0.04,0.44,0.11c0.13,0.07,0.23,0.18,0.29,0.32h0.54
	c-0.11-0.26-0.26-0.47-0.5-0.61c-0.23-0.15-0.49-0.22-0.78-0.22c-0.25,0-0.49,0.06-0.71,0.18c-0.22,0.12-0.38,0.28-0.51,0.5
	c-0.13,0.22-0.19,0.46-0.19,0.73s0.06,0.51,0.19,0.73c0.13,0.22,0.29,0.38,0.51,0.5c0.22,0.12,0.45,0.18,0.71,0.18
	c0.29,0,0.56-0.07,0.78-0.22c0.23-0.15,0.39-0.34,0.5-0.61h-0.54c-0.07,0.15-0.17,0.25-0.29,0.32c-0.13,0.07-0.27,0.11-0.44,0.11
	c-0.19,0-0.34-0.04-0.49-0.13c-0.15-0.08-0.25-0.21-0.33-0.35c-0.08-0.16-0.12-0.33-0.12-0.54s0.04-0.38,0.12-0.54
	C41.37,14.67,41.48,14.55,41.62,14.47z"/>
<path class="st0" d="M45.45,14.66c-0.17-0.09-0.36-0.14-0.57-0.14s-0.4,0.05-0.57,0.14c-0.17,0.09-0.3,0.23-0.4,0.39
	c-0.1,0.18-0.15,0.37-0.15,0.59c0,0.23,0.05,0.42,0.15,0.59s0.23,0.3,0.39,0.39c0.17,0.09,0.35,0.14,0.56,0.14
	c0.21,0,0.4-0.05,0.57-0.14c0.18-0.1,0.31-0.23,0.41-0.4c0.1-0.18,0.15-0.37,0.15-0.59c0-0.22-0.05-0.42-0.15-0.59
	C45.75,14.88,45.62,14.76,45.45,14.66z M45.44,16.05c-0.06,0.11-0.15,0.2-0.25,0.25c-0.1,0.06-0.22,0.09-0.32,0.09
	c-0.19,0-0.33-0.07-0.45-0.2c-0.12-0.13-0.18-0.31-0.18-0.55c0-0.16,0.03-0.29,0.09-0.4c0.06-0.11,0.14-0.2,0.24-0.25
	c0.1-0.06,0.21-0.08,0.32-0.08s0.23,0.03,0.32,0.08c0.1,0.06,0.18,0.14,0.25,0.25c0.06,0.11,0.09,0.25,0.09,0.4
	S45.51,15.94,45.44,16.05z"/>
<path class="st0" d="M49.56,14.63c-0.14-0.07-0.29-0.11-0.46-0.11c-0.16,0-0.31,0.04-0.45,0.12c-0.14,0.08-0.25,0.19-0.31,0.31
	c-0.08-0.14-0.18-0.25-0.31-0.32s-0.29-0.11-0.47-0.11c-0.13,0-0.25,0.03-0.36,0.08c-0.12,0.05-0.21,0.12-0.28,0.21v-0.25h-0.45
	v2.19h0.45v-1.23c0-0.2,0.05-0.34,0.15-0.45s0.24-0.16,0.4-0.16s0.3,0.05,0.4,0.16c0.1,0.11,0.15,0.25,0.15,0.45v1.23h0.45v-1.23
	c0-0.2,0.05-0.34,0.15-0.45s0.24-0.16,0.4-0.16s0.3,0.05,0.4,0.16c0.1,0.11,0.15,0.25,0.15,0.45v1.23H50v-1.28
	c0-0.2-0.04-0.36-0.12-0.51C49.79,14.81,49.69,14.7,49.56,14.63z"/>
<path class="st0" d="M53.67,14.63c-0.14-0.07-0.29-0.11-0.46-0.11c-0.16,0-0.31,0.04-0.45,0.12c-0.14,0.08-0.25,0.19-0.31,0.31
	c-0.08-0.14-0.18-0.25-0.31-0.32s-0.29-0.11-0.47-0.11c-0.13,0-0.25,0.03-0.36,0.08c-0.12,0.05-0.21,0.12-0.28,0.21v-0.25h-0.45
	v2.19h0.45v-1.23c0-0.2,0.05-0.34,0.15-0.45c0.1-0.11,0.24-0.16,0.4-0.16c0.17,0,0.3,0.05,0.4,0.16c0.1,0.11,0.15,0.25,0.15,0.45
	v1.23h0.45v-1.23c0-0.2,0.05-0.34,0.15-0.45c0.1-0.11,0.24-0.16,0.4-0.16c0.17,0,0.3,0.05,0.4,0.16c0.1,0.11,0.15,0.25,0.15,0.45
	v1.23h0.45v-1.28c0-0.2-0.04-0.36-0.12-0.51C53.92,14.81,53.81,14.7,53.67,14.63z"/>
<path class="st0" d="M56.21,15.78c0,0.2-0.05,0.34-0.15,0.45c-0.1,0.11-0.24,0.16-0.4,0.16c-0.17,0-0.3-0.05-0.4-0.16
	c-0.1-0.11-0.15-0.25-0.15-0.45v-1.22h-0.45v1.28c0,0.2,0.04,0.36,0.12,0.51c0.08,0.14,0.19,0.25,0.32,0.31
	c0.14,0.07,0.29,0.11,0.46,0.11c0.13,0,0.25-0.03,0.36-0.08c0.12-0.05,0.21-0.12,0.28-0.22v0.25h0.45v-2.19h-0.45V15.78z"/>
<path class="st0" d="M58.82,14.63c-0.14-0.07-0.29-0.11-0.46-0.11c-0.13,0-0.25,0.03-0.36,0.08c-0.12,0.05-0.21,0.12-0.28,0.21
	v-0.25h-0.45v2.19h0.45v-1.23c0-0.2,0.05-0.34,0.15-0.45c0.1-0.11,0.24-0.16,0.4-0.16c0.17,0,0.3,0.05,0.4,0.16
	c0.1,0.11,0.15,0.25,0.15,0.45v1.23h0.45v-1.28c0-0.2-0.04-0.36-0.12-0.51C59.07,14.81,58.96,14.7,58.82,14.63z"/>
<path class="st0" d="M60.07,13.69c-0.08,0-0.15,0.03-0.21,0.08c-0.06,0.06-0.09,0.13-0.09,0.21c0,0.08,0.03,0.15,0.09,0.21
	s0.13,0.09,0.21,0.09c0.08,0,0.15-0.03,0.21-0.09s0.08-0.13,0.08-0.21c0-0.08-0.03-0.15-0.08-0.21
	C60.21,13.72,60.15,13.69,60.07,13.69z"/>
<rect x="59.83" y="14.56" class="st0" width="0.45" height="2.19"/>
<path class="st0" d="M61.8,14.9c0.13,0,0.25,0.03,0.33,0.09c0.09,0.06,0.15,0.15,0.19,0.25h0.49c-0.06-0.24-0.18-0.41-0.35-0.54
	c-0.18-0.13-0.39-0.19-0.66-0.19c-0.21,0-0.39,0.05-0.56,0.14c-0.16,0.09-0.28,0.23-0.38,0.39c-0.1,0.17-0.14,0.37-0.14,0.59
	c0,0.23,0.05,0.42,0.14,0.59c0.09,0.17,0.22,0.3,0.38,0.39c0.16,0.1,0.34,0.14,0.56,0.14c0.25,0,0.48-0.07,0.65-0.2
	c0.18-0.13,0.29-0.3,0.35-0.53h-0.49c-0.09,0.23-0.25,0.34-0.52,0.34c-0.19,0-0.33-0.07-0.44-0.2c-0.11-0.13-0.17-0.31-0.17-0.55
	s0.06-0.42,0.17-0.55C61.47,14.97,61.62,14.9,61.8,14.9z"/>
<path class="st0" d="M64.9,14.87c-0.08-0.1-0.18-0.19-0.3-0.25c-0.13-0.07-0.27-0.1-0.45-0.1c-0.19,0-0.36,0.05-0.52,0.14
	c-0.16,0.1-0.28,0.23-0.37,0.39c-0.09,0.17-0.14,0.36-0.14,0.58c0,0.22,0.05,0.41,0.14,0.59c0.09,0.18,0.22,0.3,0.37,0.4
	c0.16,0.1,0.32,0.15,0.52,0.15c0.17,0,0.32-0.04,0.45-0.11c0.13-0.07,0.24-0.16,0.31-0.25v0.32h0.46v-2.19h-0.46L64.9,14.87
	L64.9,14.87z M64.8,16.04c-0.06,0.11-0.15,0.2-0.25,0.25c-0.1,0.06-0.21,0.09-0.32,0.09c-0.12,0-0.23-0.03-0.32-0.09
	c-0.1-0.06-0.19-0.15-0.25-0.25c-0.06-0.12-0.1-0.25-0.1-0.39s0.03-0.28,0.1-0.39c0.06-0.11,0.15-0.2,0.25-0.25
	c0.1-0.06,0.21-0.09,0.32-0.09c0.12,0,0.23,0.02,0.32,0.08c0.1,0.06,0.19,0.15,0.25,0.25c0.06,0.11,0.09,0.25,0.09,0.39
	S64.86,15.93,64.8,16.04z"/>
<path class="st0" d="M66.48,14.01h-0.46v0.54h-0.25v0.37h0.25v1.21c0,0.22,0.06,0.37,0.17,0.46c0.11,0.1,0.26,0.15,0.47,0.15h0.35
	v-0.37h-0.27c-0.09,0-0.16-0.02-0.2-0.05c-0.04-0.04-0.06-0.1-0.06-0.18v-1.21h0.53v-0.37h-0.53
	C66.48,14.56,66.48,14.01,66.48,14.01z"/>
<rect x="67.42" y="14.56" class="st0" width="0.45" height="2.19"/>
<path class="st0" d="M67.66,13.69c-0.08,0-0.15,0.03-0.21,0.08c-0.06,0.06-0.09,0.13-0.09,0.21c0,0.08,0.03,0.15,0.09,0.21
	s0.13,0.09,0.21,0.09c0.08,0,0.15-0.03,0.21-0.09s0.08-0.13,0.08-0.21c0-0.08-0.03-0.15-0.08-0.21
	C67.8,13.72,67.73,13.69,67.66,13.69z"/>
<path class="st0" d="M70.01,14.66c-0.17-0.09-0.36-0.14-0.57-0.14s-0.4,0.05-0.57,0.14c-0.17,0.09-0.3,0.23-0.4,0.39
	c-0.1,0.18-0.15,0.37-0.15,0.59c0,0.23,0.05,0.42,0.15,0.59c0.1,0.17,0.23,0.3,0.39,0.39s0.35,0.14,0.56,0.14s0.4-0.05,0.57-0.14
	c0.18-0.1,0.31-0.23,0.41-0.4s0.15-0.37,0.15-0.59c0-0.22-0.05-0.42-0.15-0.59C70.3,14.88,70.18,14.76,70.01,14.66z M69.99,16.05
	c-0.06,0.11-0.15,0.2-0.25,0.25c-0.1,0.06-0.22,0.09-0.32,0.09c-0.19,0-0.33-0.07-0.45-0.2c-0.12-0.13-0.18-0.31-0.18-0.55
	c0-0.16,0.03-0.29,0.09-0.4c0.06-0.11,0.14-0.2,0.24-0.25c0.1-0.06,0.21-0.08,0.32-0.08c0.12,0,0.23,0.03,0.32,0.08
	c0.1,0.06,0.18,0.14,0.25,0.25c0.06,0.11,0.09,0.25,0.09,0.4S70.06,15.94,69.99,16.05z"/>
<path class="st0" d="M72.88,14.95c-0.08-0.14-0.19-0.25-0.32-0.31c-0.14-0.07-0.29-0.11-0.46-0.11c-0.13,0-0.25,0.03-0.36,0.08
	c-0.12,0.05-0.21,0.12-0.28,0.21v-0.25H71v2.19h0.45v-1.23c0-0.2,0.05-0.34,0.15-0.45c0.1-0.11,0.24-0.16,0.4-0.16
	c0.17,0,0.3,0.05,0.4,0.16c0.1,0.11,0.15,0.25,0.15,0.45v1.23H73v-1.28C73,15.26,72.96,15.09,72.88,14.95z"/>
</svg>
