<?xml version="1.0" encoding="utf-8"?>
<!-- Generator: Adobe Illustrator 25.2.3, SVG Export Plug-In . SVG Version: 6.00 Build 0)  -->
<svg version="1.1" id="Calque_1" xmlns="http://www.w3.org/2000/svg" xmlns:xlink="http://www.w3.org/1999/xlink" x="0px" y="0px"
	 viewBox="0 0 150 150" style="enable-background:new 0 0 150 150;" xml:space="preserve">
<style type="text/css">
	.st0{fill:#858286;}
	.st1{fill:#E30613;}
</style>
<g>
	<path class="st0" d="M6.6,115.3c-4,4.1-6.2,8.8-5.9,14.5c-0.3,5.4,2,10.1,5.9,13.9c4.3,4.1,8.9,6,14.8,6.3
		c5.6-0.3,10.2-2.2,14.5-6.3c4-3.8,5.9-8.5,5.9-13.9c0-5.7-2-10.4-5.9-14.5c-4.3-3.8-8.9-5.7-14.5-5.7
		C15.5,109.6,10.9,111.5,6.6,115.3"/>
	<path class="st0" d="M94.4,75.2c0-5.7-2-10.7-6.2-14.5c-4-4.1-8.6-6-14.1-6c-5.9,0-10.9,1.9-14.8,6c-4.3,3.8-6.3,8.8-5.9,14.5
		c-0.3,5.4,1.6,10.1,5.9,13.9c2,2.2,4.6,3.8,6.9,4.7c2.6,0.9,4.9,1.3,7.9,1.3c2.6,0,4.9-0.3,7.2-1.3c2.6-0.9,4.9-2.5,6.9-4.7
		C92.5,85.3,94.4,80.5,94.4,75.2"/>
	<path class="st0" d="M59.6,115.3c-3.6,4.1-5.6,8.8-5.6,14.5c0,5.4,2,10.1,5.6,13.9c4.3,4.1,9.2,6,14.8,6.3
		c5.6-0.3,10.5-2.2,14.5-6.3c3.9-3.8,6.2-8.5,6.2-13.9c0-5.7-2.3-10.4-6.2-14.5c-4-3.8-8.9-5.7-14.5-5.7
		C68.8,109.6,63.8,111.5,59.6,115.3"/>
	<path class="st1" d="M142.5,5.7c-1.3-1.3-3-2.5-4.9-3.5C134.9,0.6,131.6,0,128,0c-3.6,0-6.9,0.6-9.5,2.2c-1.6,0.9-3.6,2.2-4.9,3.5
		c-4.3,4.1-6.2,9.2-6.2,14.5c0,5.7,2,10.1,6.2,14.2c2,1.9,4,3.2,6.2,4.4c2.6,1,5.3,1.6,8.2,1.6c3,0,5.9-0.6,8.2-1.6
		c2.3-1.3,4.3-2.5,6.3-4.4c4.3-4.1,6.2-8.5,6.2-14.2C148.7,14.8,146.7,9.8,142.5,5.7"/>
	<path class="st0" d="M135.9,93.5c2.3-1.3,4.9-2.5,6.9-4.7c4.3-3.8,6.3-8.5,6.3-14.2c0-5.4-2-10.4-6.3-14.2c-3.9-4.1-8.9-6-14.5-5.7
		c-5.6-0.3-10.5,1.6-14.8,5.7c-3.9,3.8-5.9,8.8-5.9,14.2c0,5.7,2,10.4,5.9,14.2c2.3,2.2,4.6,3.5,7.3,4.7c2.3,0.9,4.9,1.3,7.6,1.3
		C130.9,94.7,133.6,94.4,135.9,93.5"/>
	<path class="st0" d="M128.6,109c-5.9,0-10.8,1.9-14.8,6c-3.9,3.8-5.9,8.5-5.9,14.2c0,5.4,2,10.1,5.9,13.9c4,4.1,8.9,6.3,14.8,6.3
		c5.6,0,10.5-2.2,14.5-6.3c3.9-3.8,6.3-8.5,6.3-13.9c0-5.7-2.3-10.4-6.3-14.2C139.2,110.8,134.2,109,128.6,109"/>
</g>
</svg>
