<?xml version="1.0" encoding="UTF-8"?><svg id="Calque_2" xmlns="http://www.w3.org/2000/svg" viewBox="0 0 442.6 88.91"><defs><style>.cls-1,.cls-2{fill:none;}.cls-3{fill:#005985;}.cls-4{opacity:.8;}.cls-2{opacity:.6;}.cls-5{fill:#f1a42b;}</style></defs><g id="Calque_1-2"><path class="cls-1" d="M410.05,41.25c-2.09-.94-5.28-1.41-9.58-1.41h-9.58v14.67h10.81c2.94,0,5.21-.27,6.81-.81,1.6-.55,2.83-1.57,3.68-3.09.66-1.09.99-2.3.99-3.65,0-2.85-1.04-4.76-3.14-5.7Z"/><path class="cls-3" d="M48.05,32.55c-.99-.88-2.5-1.31-4.55-1.31H5.96c-1.94,0-3.41.42-4.44,1.27-1.02.85-1.52,2.01-1.52,3.47s.49,2.56,1.47,3.42c.98.86,2.48,1.29,4.5,1.29h12.9v41.22c0,2.36.55,4.11,1.65,5.27,1.09,1.17,2.52,1.75,4.26,1.75s3.12-.57,4.21-1.72c1.09-1.15,1.63-2.92,1.63-5.29v-41.22h12.89c2.02,0,3.53-.42,4.53-1.29,1.01-.86,1.52-2,1.52-3.42s-.5-2.56-1.5-3.43Z"/><path class="cls-3" d="M157.59,31.9c-.98-1.1-2.32-1.65-4.02-1.65s-2.96.55-3.92,1.65c-.97,1.1-1.46,2.74-1.46,4.93v33.75l-11.79-17.42-10.86-16.02c-.64-.98-1.26-1.92-1.87-2.82-.59-.9-1.19-1.64-1.76-2.2-.57-.57-1.23-1.02-2-1.35-.76-.34-1.68-.51-2.75-.51-1.36,0-2.63.37-3.81,1.1-1.17.73-2,1.68-2.51,2.85-.43,1.06-.64,2.51-.64,4.37v43.76c0,2.15.5,3.78,1.52,4.9,1.02,1.12,2.38,1.68,4.07,1.68s2.96-.56,4.01-1.66c1.04-1.11,1.57-2.76,1.57-4.93v-33.32l2.57,3.85,11.91,17.84,7.62,11.42c.63.91,1.27,1.79,1.9,2.66.64.87,1.33,1.62,2.07,2.27.74.64,1.54,1.11,2.39,1.41.84.29,1.8.44,2.86.44,4.24,0,6.37-2.49,6.37-7.47v-44.62c0-2.19-.5-3.83-1.48-4.93Z"/><path class="cls-3" d="M182.49,31.98c-1.09-1.15-2.52-1.72-4.28-1.72s-3.11.58-4.19,1.75c-1.09,1.16-1.63,2.9-1.63,5.22v44.69c0,2.32.56,4.07,1.64,5.24,1.09,1.18,2.49,1.76,4.18,1.76s3.19-.58,4.28-1.75c1.1-1.15,1.65-2.91,1.65-5.26v-44.69c0-2.34-.56-4.09-1.65-5.24Z"/><path class="cls-3" d="M239.85,32.55c-.99-.88-2.52-1.31-4.56-1.31h-37.54c-1.94,0-3.41.42-4.43,1.27-1.02.85-1.53,2.01-1.53,3.47s.5,2.56,1.48,3.42c.97.86,2.47,1.29,4.48,1.29h12.9v41.22c0,2.36.55,4.11,1.65,5.27,1.1,1.17,2.52,1.75,4.27,1.75s3.12-.57,4.2-1.72c1.08-1.15,1.62-2.92,1.62-5.29v-41.22h12.89c2.02,0,3.53-.42,4.54-1.29,1-.86,1.51-2,1.51-3.42s-.51-2.56-1.5-3.43Z"/><path class="cls-5" d="M315.36,31.74c-1.07-1-2.37-1.49-3.92-1.49s-2.7.38-3.52,1.16c-.81.78-1.37,1.65-1.7,2.62-.34.98-.68,2.33-1.05,4.06l-7.53,32.61-.11.44-.12-.44-8.51-30.49c-.72-2.54-1.28-4.38-1.72-5.48-.42-1.11-1.18-2.13-2.29-3.07-1.1-.94-2.65-1.41-4.63-1.41s-3.5.46-4.65,1.35c-1.14.9-1.95,1.97-2.47,3.2-.5,1.24-1.07,3.04-1.7,5.41l-8.26,29.87-.19.62-.11.44-.1-.44-.16-.67-7.38-31.94c-.55-2.55-1.2-4.49-1.94-5.83-.75-1.35-2.2-2.01-4.35-2.01-1.56,0-2.87.51-3.93,1.52-1.06,1-1.59,2.24-1.59,3.71,0,1.16.29,2.85.88,5.07l7.19,28.37.46,1.79,2.04,8.03c.3,1.14.62,2.37,1,3.7.37,1.33.84,2.47,1.43,3.44.57.96,1.34,1.71,2.29,2.24.93.52,2.13.79,3.6.79,1.79,0,3.23-.44,4.32-1.34,1.1-.89,1.85-1.9,2.28-3.02.44-1.12,1.03-2.98,1.78-5.56l2.29-8.18.04-.11,7.21-25.79,7.13,25.79.22.76,2.07,7.52c.77,2.66,1.37,4.54,1.79,5.64.44,1.11,1.18,2.09,2.28,2.97,1.09.88,2.53,1.32,4.34,1.32s3.37-.45,4.43-1.35c1.04-.9,1.79-1.95,2.21-3.15.45-1.2.99-3.09,1.67-5.67l1.81-7.17.22-.86,7.66-30.15c.58-2.33.87-4.01.87-5.07,0-1.49-.52-2.74-1.61-3.74Z"/><path class="cls-5" d="M368.28,80.03c-.94-.85-2.34-1.27-4.19-1.27h-27.55v-16.08h24.53c1.82,0,3.18-.4,4.05-1.2.87-.81,1.32-1.85,1.32-3.13s-.45-2.31-1.34-3.09c-.89-.77-2.23-1.17-4.03-1.17h-24.53v-13.96h26.63c1.88,0,3.27-.41,4.21-1.21.9-.82,1.36-1.9,1.36-3.25s-.46-2.38-1.36-3.2c-.94-.81-2.32-1.22-4.21-1.22h-31.17c-1.66,0-3.03.24-4.09.72-1.07.47-1.85,1.23-2.36,2.28-.5,1.04-.75,2.39-.75,4.04v42.62c0,2.48.57,4.27,1.69,5.38,1.12,1.12,2.96,1.66,5.52,1.66h32.09c1.84,0,3.25-.42,4.19-1.26.94-.84,1.41-1.94,1.41-3.28s-.47-2.51-1.41-3.36Z"/><path class="cls-5" d="M427.36,70.7c-.38-6.28-4.13-10.56-11.34-12.82,3.55-1.62,6.02-3.8,7.4-6.57.85-1.73,1.3-3.69,1.3-5.87,0-1.65-.28-3.22-.82-4.7-.56-1.48-1.37-2.83-2.42-4.05-1.06-1.23-2.26-2.24-3.64-3.03-1.61-.95-3.45-1.59-5.47-1.93-2.02-.33-4.45-.5-7.23-.5h-18.84c-2.51,0-4.34.55-5.46,1.64-1.13,1.11-1.7,2.89-1.7,5.39v42.62c0,2.45.55,4.23,1.66,5.36,1.09,1.12,2.91,1.68,5.49,1.68h17.77c3.08,0,5.76-.14,8.06-.44,2.31-.29,4.34-.81,6.12-1.52,2.81-1.21,5.05-3.09,6.71-5.64,1.65-2.54,2.49-5.4,2.49-8.58,0-.37-.05-.69-.08-1.04ZM390.9,39.84h9.58c4.3,0,7.49.48,9.58,1.41,2.1.95,3.14,2.85,3.14,5.7,0,1.35-.33,2.56-.99,3.65-.85,1.52-2.08,2.55-3.68,3.09-1.6.54-3.88.81-6.81.81h-10.81v-14.67ZM403.58,79.32h-12.68v-16.64h12.28c4.09,0,7.19.66,9.26,1.95,2.03,1.27,3.04,3.3,3.09,6.08,0,.07.02.12.02.19,0,5.62-3.99,8.43-11.97,8.43Z"/><path class="cls-2" d="M408.52,53.7c1.6-.55,2.83-1.57,3.68-3.09.66-1.09.99-2.3.99-3.65,0-2.85-1.04-4.76-3.14-5.7-2.09-.94-5.28-1.41-9.58-1.41h-9.58v14.67h10.81c2.94,0,5.21-.27,6.81-.81Z"/><path class="cls-5" d="M62.79,11.48c0-6.34,5.28-11.48,11.8-11.48s11.8,5.14,11.8,11.48-5.28,11.48-11.8,11.48-11.8-5.14-11.8-11.48Z"/><path class="cls-5" d="M99.55,77.58l-2.86-6.87-7.19-17.26-5.19-12.47c-.72-1.83-1.31-3.3-1.77-4.39-.46-1.1-1.04-2.12-1.71-3.08-.67-.95-1.57-1.73-2.66-2.34-1.1-.61-2.48-.91-4.12-.91s-2.97.3-4.07.91c-1.11.61-2,1.4-2.67,2.38-.67.97-1.31,2.22-1.91,3.69-.59,1.49-1.11,2.75-1.53,3.82l-5.92,14.64-6.08,15.02-2.91,7.18c-.61,1.47-1.04,2.62-1.31,3.44-.27.83-.41,1.63-.41,2.4,0,1.34.56,2.54,1.71,3.59,1.14,1.05,2.45,1.59,3.94,1.59h42.67c1.59,0,2.95-.55,4.07-1.65,1.13-1.1,1.7-2.3,1.7-3.61s-.61-3.3-1.79-6.08ZM60.96,78.49l8.72-23.64,4.26-11.55,4.11,10.95,9.1,24.24h-26.19Z"/><g class="cls-4"><path class="cls-5" d="M58.67,24.62c-.59-.25-1.18-.5-1.77-.75,2.46,1.17,5.13,1.94,7.81,2.61,2.72.52,5.47.97,8.24.99,2.76.12,5.5-.1,8.17-.45,1.32-.26,2.65-.41,3.92-.78.64-.16,1.27-.32,1.9-.48.62-.2,1.23-.41,1.84-.61.62-.17,1.81-.65,2.41-.9,4.78-1.87,10.17-5.87,12.86-10.36.36-.54.59-1.11.85-1.6.25-.49.46-.93.56-1.32.21-.68.39-1.24.39-1.24.24-.61.26-1.27.12-.64-.2.61-.57,1.68-.96,2.56-.22.41-.42.79-.59,1.1-.15.28-.26.45-.26.45,0,0,.29-.57.58-1.14-.03-.02.21-.43.37-.97.17-.53.37-1.14.48-1.44.15-.29.33-1.39.55-2.48.12-1.1.14-2.22.16-2.53-.02-.95-.03,0-.21,1.49-.12,1.49-.74,3.45-1.23,4.6-.45,1.17-.05-.02-.08-.03-.18.6-.45.99-.66,1.41-.23.4-.41.84-.75,1.36-.09.13-.56.8-1.21,1.72-.77.88-1.66,1.97-2.39,2.57,0,0-.12.11-.4.38-.14.14-.33.31-.56.53-.26.2-.56.44-.93.73-.5.38-.48.4-.48.4t-.01-.02c-.46.43-1.55,1.07-2.07,1.42t-.01-.02c-.28.18-.54.35-.79.51-.28.15-.55.29-.83.44-.55.29-1.1.57-1.67.87t0-.02c-.58.25-1.16.48-1.16.48t0-.02c-.58.24-1.73.75-1.75.71t0,.02c-2.37.85-4.2,1.31-6.05,1.68-1.24.22-2.55.47-3.93.57-1.37.19-2.81.21-4.26.26-2.9,0-5.9-.17-8.68-.72-.62-.11-1.24-.2-.63-.07-.62-.09-1.23-.26-1.84-.42-1.22-.32-.62-.12-1.83-.44-.6-.2-1.2-.4-1.79-.6l-.9-.3-.87-.37-1.74-.74-1.67-.87-.83-.44-.79-.51c-.53-.34-1.07-.66-1.58-1.03-.99-.77-2.01-1.5-2.89-2.4-3.7-3.37-6.16-8.15-6.23-13.15.08,2.49.47,4.35,1.43,6.65,0,0-.03.01.26.57.22.42.44.84.66,1.27.24.42.54.81.81,1.21.51.83,1.17,1.53,1.76,2.22,1.22,1.33,2.4,2.37,3.15,2.94.5.39.94.84,2.56,1.84-.53-.35-1.07-.67-1.59-1.03,0,0-.02.03-.02.03,2.06,1.46,4.86,2.96,7.22,3.89,0,0,0,.02-.01.03.38.18.8.28,1.19.43.59.22-.79-.15-2.6-.96-1.84-.74-4.04-2.03-5.35-2.91,0,0-.02.03-.02.03l1.07.68v.02c-3.22-2.04-5.67-4.19-7.82-7.34.18.26.45.66.72,1.05.28.39.61.73.82.98,0,0-.02.01.4.49-.4-.49-.88-.97-1.29-1.54-.39-.58-.8-1.17-1.2-1.76-.33-.63-.66-1.27-.98-1.89-.28-.63-.49-1.28-.72-1.87-.22-.6-.05.02.62,1.81.46.84.78,1.58,1.21,2.25.47.64.86,1.35,1.48,2.08h-.02c-.81-.98-1.86-2.59-2.4-3.75-.3-.56.56,1.15.26.59-.28-.58-.64-1.12-.83-1.73.14.46.4.92.65,1.4.26.47.48,1,.8,1.46.64.92,1.24,1.87,1.9,2.57.2.24.39.47.56.68.15.19.25.31.24.32,2.24,2.3,4.38,3.73,5.99,4.79.25.21,1.12.62,2.11,1.15.98.55,2.2.97,3.07,1.37Z"/></g><path class="cls-5" d="M434.15,22.77c.95,0,1.9.17,2.84.51.95.34,1.8.82,2.55,1.44.95.79,1.69,1.76,2.24,2.93.54,1.17.82,2.39.82,3.67,0,.94-.18,1.87-.53,2.8-.35.93-.85,1.79-1.49,2.57-.84.99-1.82,1.74-2.94,2.25-1.1.51-2.32.77-3.64.77-.93,0-1.85-.16-2.75-.49-.91-.33-1.74-.8-2.48-1.41-1-.82-1.78-1.79-2.32-2.93-.55-1.13-.81-2.34-.81-3.63,0-.96.17-1.9.5-2.83.33-.93.8-1.77,1.4-2.52.81-.99,1.8-1.75,2.95-2.31,1.16-.55,2.38-.83,3.66-.83ZM441.5,31.25c0-2.05-.72-3.81-2.16-5.27-1.44-1.46-3.17-2.19-5.2-2.19s-3.78.73-5.23,2.2c-1.47,1.46-2.19,3.22-2.19,5.26s.72,3.81,2.16,5.25c1.43,1.44,3.17,2.16,5.23,2.16s3.77-.73,5.21-2.19c1.45-1.45,2.17-3.2,2.17-5.23ZM434.77,31.11c.78.23,1.36.53,1.75.91.38.38.66.89.82,1.54.04.17.09.41.13.75.08.69.29,1.04.66,1.04.24,0,.41-.11.56-.34.12-.23.19-.53.19-.91.02-.12.02-.21.02-.27h.54v.3c0,.62-.17,1.11-.51,1.46-.33.35-.79.53-1.39.53-.39,0-.72-.06-1-.19-.29-.13-.49-.31-.62-.55-.17-.3-.26-.73-.28-1.3-.03-.58-.07-.96-.11-1.15-.13-.54-.4-.95-.78-1.23-.39-.28-.9-.41-1.55-.41h-.33v2.91c0,.4.1.68.3.85.19.17.57.27,1.1.31v.54h-4.63v-.54c.54-.02.92-.12,1.14-.28.19-.17.3-.46.3-.87v-6.13c0-.42-.11-.72-.29-.89-.21-.17-.59-.28-1.14-.32v-.54h4.72c1.15,0,2.06.22,2.76.65.69.43,1.03.99,1.03,1.67s-.26,1.19-.78,1.57c-.51.38-1.39.68-2.61.9ZM432.88,30.76c.1,0,.18.01.28.01.08,0,.18,0,.26,0h.19c.84,0,1.48-.18,1.95-.54.46-.36.68-.86.68-1.52,0-.57-.18-1.03-.57-1.38-.39-.35-.91-.53-1.58-.53-.4,0-.7.07-.9.21-.19.14-.29.35-.29.63v3.11Z"/></g></svg>