<?xml version="1.0" encoding="UTF-8"?> <svg xmlns="http://www.w3.org/2000/svg" xmlns:xlink="http://www.w3.org/1999/xlink" version="1.1" id="Calque_1" x="0px" y="0px" viewBox="0 0 300 100" style="enable-background:new 0 0 300 100;" xml:space="preserve"> <style type="text/css"> .st0{fill:#717072;} .st1{fill:#00B9E1;} </style> <path class="st0" d="M60.9,4.5c22.4,18.4-0.4,56.4-19.6,60l0,0c4.2-16.1,8.8-31.7,12.8-47.9l0,0h-7.4c-4.1,22.2-14.1,42.1-32.4,47.9 l0,0c3.9-16.3,8.5-32,12.8-47.9l0,0h-7.4c-5.5,19-10.7,38.3-15.5,58l0,0c15.3,0.5,23.4-9.8,31-14.8l0,0c-1.5,4.8-2.8,9.8-4,14.8l0,0 c31.6-1.5,58.8-42,40.5-70.8l0,0c-1.3,0.2-2.8,0.1-4.4,0l0,0c-0.9-0.1-1.8-0.1-2.7-0.1l0,0C63.2,3.7,61.8,3.9,60.9,4.5"></path> <path class="st0" d="M85.2,30.8c-3.5,15-7.8,29.1-11.5,43.9l0,0H94c0-2.7,1.3-4.1,1.4-6.7l0,0c-1.5-0.2-3.2-0.1-4.9,0l0,0 c-2.8,0.1-5.6,0.3-7.3-0.7l0,0c1.2-3.7,1.5-8.4,3.4-11.5l0,0h8.8c1-1.9,1.4-4.4,2-6.8l0,0c-1-0.2-2.3-0.1-3.6,0l0,0 c-2.1,0.1-4.2,0.3-5.2-0.7l0,0c0.6-4.1,1.1-8.3,3.4-10.8l0,0h12.1c-0.2-2.9,1-4.4,1.3-6.8l0,0H85.2z"></path> <path class="st0" d="M110.2,67.9c0.8-6.8,5.1-23.6,12.1-14.8l0,0c3.7,4.6-3.6,14.8-11.8,14.8l0,0C110.4,67.9,110.3,67.9,110.2,67.9 M123.7,38.9c-0.9,3.2-3.1,5-6.7,5.4l0,0C115.8,39.2,120.2,35.2,123.7,38.9 M112.2,30.8c-3.4,15.1-7.6,29.3-11.5,43.9l0,0 c21,4.1,35.6-11.4,26.3-27l0,0c7.5-7.6,2.1-17.8-8.9-17.8l0,0C116.3,29.9,114.3,30.1,112.2,30.8"></path> <g> <g> <path class="st0" d="M142.1,95.8l2.6-12.8h3.3l-2.6,12.8H142.1z M145.1,81.6l0.6-3h3.3l-0.6,3H145.1z"></path> <path class="st0" d="M148.6,95.8l2.6-12.8h3.3l-0.4,1.9h0c0.4-0.7,1-1.2,1.6-1.6c0.6-0.4,1.3-0.6,1.9-0.6c3.3,0,4.6,1.5,4,4.4 l-1.8,8.6h-3.3l1.6-7.6c0.2-0.8,0.1-1.3,0-1.7c-0.2-0.5-0.9-0.8-1.8-0.8c-1.6,0-2.5,0.7-2.9,2.2l-1.6,7.9H148.6z"></path> <path class="st0" d="M164.4,83.3h1.6l0.7-3.5h3.3l-0.7,3.5h1.8l-0.5,2.2h-1.8l-1.5,7.2c-0.2,0.7-0.1,1.1,0.3,1.1l1.2,0l-0.5,2.2 c-0.6,0.2-1.1,0.3-1.7,0.3c-2.1,0.1-3.1-0.8-3-2.5l1.7-8.3h-1.6L164.4,83.3z"></path> <path class="st0" d="M182.7,90.4h-8.5c-0.3,0.9-0.3,1.6,0,2c0.4,0.8,1.1,1.2,2,1.2c0.6,0,1.1-0.1,1.7-0.5c0.5-0.3,0.9-0.6,1.1-1 h3.3c-0.5,1.2-1.5,2.2-2.9,3c-1.3,0.8-2.6,1.1-3.8,1.1c-1.2,0-2.3-0.3-3.1-1c-1-0.7-1.6-1.8-1.7-3c0-0.4,0-0.9,0.1-1.6 c0.1-0.9,0.3-1.8,0.7-2.7c1.3-3.5,3.6-5.2,6.8-5.2c2.2,0,3.6,0.8,4.3,2.5c0.5,1.2,0.6,2.5,0.2,4.2 C182.9,89.7,182.8,90.1,182.7,90.4z M174.7,88.2h5c0.4-1.7-0.2-2.6-1.7-2.7c-0.9,0-1.7,0.2-2.3,0.8 C175.2,86.9,174.8,87.5,174.7,88.2z"></path> <path class="st0" d="M183.9,95.8l2.6-12.8h3.3l-0.5,2.5h0c0.4-0.8,1-1.4,1.9-2c0.8-0.5,1.5-0.7,2.1-0.7c0.1,0,0.3,0,0.4,0 l-0.7,3.4c-0.5,0-0.8-0.1-1.1-0.1c-1.6,0-2.7,0.8-3.3,2.5l-1.5,7.2H183.9z"></path> <path class="st0" d="M193,95.8l2.6-12.8h3.3l-0.4,1.9h0c0.4-0.7,1-1.2,1.6-1.6c0.6-0.4,1.3-0.6,1.9-0.6c3.3,0,4.6,1.5,4,4.4 l-1.8,8.6h-3.3l1.6-7.6c0.2-0.8,0.1-1.3,0-1.7c-0.2-0.5-0.9-0.8-1.8-0.8c-1.6,0-2.5,0.7-2.8,2.2l-1.6,7.9H193z"></path> <path class="st0" d="M218.2,95.8h-3.5c-0.2-0.4-0.2-0.8-0.1-1.3c-0.8,0.6-1.5,1.1-2,1.3c-0.7,0.3-1.5,0.5-2.4,0.5 c-2.6,0-3.6-1.3-3-3.9c0.6-2.3,2.1-3.6,4.5-4c1.2,0,2.4-0.2,3.4-0.6c0.6-0.2,1-0.7,1.1-1.4c0.1-0.8-0.5-1.2-1.9-1.2 c-1.4,0-2.2,0.7-2.6,2.1h-3.1c0.6-3,2.7-4.5,6.2-4.5c1.2,0,2.2,0.2,2.9,0.5c1.4,0.6,1.9,1.8,1.5,3.6l-1.4,7 c-0.1,0.6,0,1.1,0.4,1.5L218.2,95.8z M215.4,90.5l0.2-0.7c-0.4,0.2-1,0.4-1.7,0.5c-0.5,0.1-1,0.1-1.5,0.2 c-0.5,0.1-0.8,0.3-1.2,0.6c-0.3,0.3-0.6,0.7-0.7,1.1c-0.1,0.4,0,0.7,0.1,1c0.2,0.4,0.6,0.6,1.2,0.6c0.2,0,0.4,0,0.6-0.1 C214.1,93.3,215.1,92.3,215.4,90.5z"></path> <path class="st0" d="M221.9,83.3h1.6l0.7-3.5h3.3l-0.7,3.5h1.8l-0.5,2.2h-1.8l-1.5,7.2c-0.2,0.7-0.1,1.1,0.3,1.1l1.2,0L226,96 c-0.6,0.2-1.1,0.3-1.7,0.3c-2.1,0.1-3.1-0.8-3-2.5l1.7-8.3h-1.6L221.9,83.3z"></path> <path class="st0" d="M228.4,95.8L231,83h3.3l-2.6,12.8H228.4z M231.3,81.6l0.6-3h3.3l-0.6,3H231.3z"></path> <path class="st0" d="M240.3,96.3c-1.8,0-3.2-0.5-4.1-1.5c-1-1.2-1.3-2.9-0.8-5.2c0.5-2.3,1.5-4.1,3-5.2c1.3-1,2.9-1.6,4.7-1.6 c1.8,0,3.2,0.5,4.1,1.6c1,1.1,1.3,2.9,0.8,5.2c-0.5,2.3-1.5,4.1-3,5.2C243.7,95.8,242.1,96.3,240.3,96.3z M242.5,85.6 c-1,0-1.9,0.5-2.7,1.4c-0.6,0.7-0.9,1.6-1.1,2.5c-0.2,0.9-0.2,1.8,0.1,2.5c0.3,1,1,1.4,2.1,1.4c1,0,1.9-0.5,2.6-1.4 c0.6-0.7,0.9-1.6,1.1-2.5c0.2-0.9,0.2-1.8-0.1-2.5C244.3,86.1,243.6,85.6,242.5,85.6z"></path> <path class="st0" d="M249.2,95.8l2.6-12.8h3.3l-0.4,1.9h0c0.4-0.7,1-1.2,1.6-1.6c0.6-0.4,1.3-0.6,1.9-0.6c3.3,0,4.6,1.5,4,4.4 l-1.8,8.6h-3.3l1.6-7.6c0.1-0.8,0.1-1.3,0-1.7c-0.2-0.5-0.9-0.8-1.8-0.8c-1.6,0-2.5,0.7-2.8,2.2l-1.6,7.9H249.2z"></path> <path class="st0" d="M274.4,95.8h-3.5c-0.2-0.4-0.2-0.8-0.1-1.3c-0.8,0.6-1.5,1.1-2,1.3c-0.7,0.3-1.5,0.5-2.4,0.5 c-2.6,0-3.6-1.3-3-3.9c0.6-2.3,2.1-3.6,4.5-4c1.2,0,2.4-0.2,3.4-0.6c0.6-0.2,1-0.7,1.1-1.4c0.1-0.8-0.5-1.2-1.9-1.2 c-1.4,0-2.2,0.7-2.6,2.1h-3.1c0.6-3,2.7-4.5,6.2-4.5c1.2,0,2.2,0.2,2.9,0.5c1.4,0.6,1.9,1.8,1.5,3.6l-1.4,7 c-0.1,0.6,0,1.1,0.4,1.5L274.4,95.8z M271.6,90.5l0.2-0.7c-0.4,0.2-1,0.4-1.7,0.5c-0.5,0.1-1,0.1-1.5,0.2 c-0.5,0.1-0.8,0.3-1.2,0.6c-0.3,0.3-0.6,0.7-0.6,1.1c-0.1,0.4,0,0.7,0.1,1c0.2,0.4,0.6,0.6,1.2,0.6c0.2,0,0.4,0,0.6-0.1 C270.3,93.3,271.2,92.3,271.6,90.5z"></path> <path class="st0" d="M280.3,78.6h3.3L280,95.8h-3.3L280.3,78.6z"></path> </g> </g> <g> <path class="st1" d="M166.9,29.4c-3.6-7-6.9-14.3-18.9-12.8l0,0c-5.7,23.8-12.2,55.5-18.2,78.9h2.7h4.1 c6.2-20.6,10.9-51.3,17.5-71.5l0,0c15.3,11.3,0.2,34.1-1.4,50.6l0,0h6.7c4.9-19.4,8.7-43.5,25-49.2l0,0c-4,16.7-8.4,32.9-12.8,49.2 l0,0h7.4c4.2-20.1,10.6-38,14.8-58l0,0c-1.3-0.2-2.5-0.3-3.7-0.3l0,0C178,16.3,173.1,26,166.9,29.4"></path> <path class="st1" d="M196.6,30.8c-3,15.3-8,28.4-10.8,43.9l0,0h18.9c1-1.9,1.4-4.4,2-6.7l0,0c-1.5-0.2-3.2-0.1-4.9,0l0,0 c-2.8,0.1-5.6,0.3-7.3-0.7l0,0c1-4,1.3-8.6,3.4-11.5l0,0h8.8c0.3-2.4,1.8-3.6,1.3-6.8l0,0c-1-0.2-2.3-0.1-3.6,0l0,0 c-2.1,0.1-4.2,0.3-5.2-0.7l0,0c1.6-3.3,1.3-8.6,4-10.8l0,0h11.5c1.1-1.8,1-4.9,2-6.8l0,0H196.6z"></path> <path class="st1" d="M227.6,37.5c18.1,3.6,4.7,30.3-7.4,30.4l0,0C221.8,56.9,225.7,48.3,227.6,37.5 M222.2,30.8 c-2.9,15.3-7.9,28.5-10.8,43.9l0,0c16.2,4.3,28.5-8.6,31.3-21.5l0,0c2.4-11.2-2.4-22.4-18.1-22.4l0,0 C223.8,30.7,223,30.7,222.2,30.8"></path> <path class="st1" d="M255.9,30.8c-4.1,14.4-8.1,28.8-11.5,43.9l0,0h6.7c3.6-14.8,8.1-28.8,11.5-43.9l0,0H255.9z"></path> <path class="st1" d="M284.9,41.6c0.8,5.8-2.7,13.1-4,18.9l0,0h-12.1C271.6,51.6,277.8,46.2,284.9,41.6 M260.6,74.6h6.7 c-0.5-1.6-1.6-6,0-7.4l0,0c1.4,0.2,3,0.1,4.6,0l0,0c2.7-0.1,5.3-0.3,6.9,0.7l0,0c0,2.7-1.3,4.1-1.3,6.7l0,0h6.7 c3.7-14.7,8.3-28.5,11.5-43.9l0,0C274.7,35.6,258.7,49.1,260.6,74.6"></path> </g> </svg> 