<svg width="74" height="49" viewBox="0 0 74 49" fill="none" xmlns="http://www.w3.org/2000/svg">
<g clip-path="url(#clip0_1635_4139)">
<path d="M74 42.1974H69.8766C69.8766 42.1974 68.517 42.2411 68.4727 43.6835V45.4459C68.4727 45.4459 69.167 44.6742 69.9507 44.7028V43.5231H72.6999C72.6991 43.5231 73.8816 43.2175 74 42.1974Z" fill="#010202"/>
<path d="M73.1415 44.9941H69.9936C69.9936 44.9941 68.4414 44.8925 68.4414 46.4072V47.748C68.4414 47.9821 68.5102 48.2147 68.6522 48.4022C68.8035 48.6025 69.0479 48.8102 69.4169 48.8388H72.742C72.742 48.8388 73.8358 48.6205 73.9832 47.5425H69.8897V46.2024H71.9735C71.9735 46.2032 72.9788 45.9848 73.1415 44.9941Z" fill="#010202"/>
<path d="M61.4249 43.6692V48.7967C61.4249 48.7967 59.9026 48.7968 59.8438 47.5297V42.8689C59.8438 42.8674 60.5236 43.8288 61.4249 43.6692Z" fill="#010202"/>
<path d="M59.8711 42.1831C59.8711 42.1831 59.9215 43.2815 61.6593 43.4652C61.7624 43.4765 62.6737 43.4704 63.0862 43.4667C63.2535 43.4652 63.4192 43.4892 63.5781 43.5412C63.9593 43.6654 64.5643 43.9748 64.6147 44.6885V46.3372C64.6147 46.5503 64.5452 46.7588 64.4115 46.9267C64.203 47.1887 63.8394 47.5343 63.3436 47.5877H61.6784V48.8261H63.5651C63.5651 48.8261 65.2395 48.4806 65.8865 47.1646C66.0301 46.8718 66.0928 46.5465 66.0928 46.2213V44.8142C66.0928 44.4694 66.0171 44.1299 65.8682 43.8175C65.5489 43.1482 64.8553 42.1447 63.5804 42.1831H59.8711Z" fill="#010202"/>
<path d="M52.9253 42.5767V46.1264C52.9253 46.3869 52.9956 46.6443 53.14 46.8619C53.3623 47.1977 53.7839 47.5982 54.5211 47.5726C54.5211 47.5726 54.5997 47.5688 54.7235 47.5455C55.5698 47.3836 56.1664 46.63 56.1519 45.7801L56.1389 45.0257C56.1305 44.5612 55.9311 44.1118 55.566 43.8182C55.3193 43.6202 54.9725 43.4659 54.492 43.4659C54.492 43.4659 53.6197 43.5095 53.0881 44.1359V42.5045C53.0881 42.5045 55.9434 41.2698 57.3466 43.7557C57.4711 43.9755 57.5398 44.2225 57.5505 44.4739L57.6208 46.1497C57.6361 46.5111 57.5536 46.8694 57.3756 47.1856C56.9998 47.8526 56.1725 48.8502 54.5806 48.8697C54.5806 48.8697 51.6688 48.9277 51.403 46.5389C51.403 46.5382 50.9003 43.115 52.9253 42.5767Z" fill="#010202"/>
<path d="M49.0984 42.183H46.2309C46.2309 42.183 45.4181 42.1319 44.9453 42.5038V44.099C44.9453 44.099 45.5365 43.356 46.386 43.4072H47.9228C47.9236 43.4064 49.0175 43.152 49.0984 42.183Z" fill="#010202"/>
<path d="M44.7693 42.5798L44.8251 46.414C44.8251 46.414 44.8915 47.4191 46.1993 47.5501H47.6957C47.6957 47.5501 49.1142 47.6592 49.1035 48.8389H46.1328C46.1328 48.8389 43.5387 48.4896 43.3065 46.414C43.3065 46.4148 42.8627 43.3997 44.7693 42.5798Z" fill="#010202"/>
<path d="M28.2305 42.2997C28.2305 42.2997 28.2748 43.5381 29.5161 43.5818H31.4815C31.4815 43.5818 32.2201 43.6985 32.2942 44.2375C32.2942 44.2375 32.3874 44.9933 32.0582 45.3675C32.0101 45.4225 32.036 45.5075 32.1086 45.5218C32.3698 45.5738 32.8175 45.7018 32.9924 45.9833C33.0268 46.0383 33.107 46.0368 33.1322 45.9781C33.3965 45.369 34.1504 43.2287 32.1369 42.3471C32.0635 42.3147 31.9833 42.3004 31.9031 42.3004H28.2305V42.2997Z" fill="#010202"/>
<path d="M31.6804 46.9169C32.3679 46.95 32.2457 48.1516 32.2457 48.1516C32.3457 49.0256 33.4762 48.9707 33.4762 48.9707V47.343C33.1768 45.8682 31.7323 45.7372 31.7323 45.7372H29.5599V43.9048C29.5599 43.8393 29.5095 43.7859 29.443 43.7806C29.1627 43.7588 28.4577 43.6413 28.2109 43.0172V47.8105C28.2109 48.0221 28.2743 48.2306 28.3996 48.403C28.5913 48.6658 28.9427 48.9842 29.5187 48.9714V46.9169H31.6804Z" fill="#010202"/>
<path d="M26.1912 42.3073H22.8661C22.8661 42.3073 21.8387 42.2448 21.5644 43.4554C21.5515 43.5119 21.5469 43.5706 21.5469 43.6285V45.5076C21.5469 45.5076 21.9013 44.7977 22.7882 44.8082V43.5412H25.2188C25.3624 43.5412 25.5022 43.4998 25.6198 43.4193C25.8696 43.2499 26.2431 42.8938 26.1912 42.3073Z" fill="#010202"/>
<path d="M25.5826 45.1146H22.8113C22.8113 45.1146 21.6144 45.1583 21.5586 46.5563V47.6886C21.5586 48.004 21.6548 48.3134 21.8435 48.5686C21.9971 48.7772 22.2048 48.9707 22.4454 48.9707H25.2274C25.2274 48.9707 26.0585 48.665 26.225 47.6818H22.7892V46.2943H24.4078C24.4804 46.2943 24.5529 46.283 24.6217 46.2597C24.8715 46.1739 25.4215 45.8998 25.5826 45.1146Z" fill="#010202"/>
<path d="M19.5623 42.3396H16.1035C16.0416 42.3396 15.9797 42.3471 15.9202 42.3644C15.6597 42.4375 15.0066 42.7002 14.918 43.52H18.5211C18.6479 43.52 18.7732 43.4862 18.8794 43.4184C19.136 43.2543 19.5699 42.8952 19.5623 42.3396Z" fill="#010202"/>
<path d="M17.8334 43.7821V47.7639C17.8334 47.9054 17.8044 48.0462 17.7433 48.1742C17.6066 48.4618 17.2896 48.9127 16.625 48.9714V43.7821H17.8334Z" fill="#010202"/>
<path d="M13.1675 42.3291H9.64987C9.64987 42.3291 8.51172 42.4164 8.51172 43.6692V45.4459C8.51172 45.4459 8.94025 44.8338 9.72397 44.8195V43.6247H12.1034C12.1034 43.6255 13.1675 43.2031 13.1675 42.3291Z" fill="#010202"/>
<path d="M12.5177 45.1109H9.87242C9.87242 45.1109 8.46844 45.0235 8.51275 46.3929V48.9857C8.51275 48.9857 9.45841 49.131 9.69521 48.1847V46.2951H11.6942C11.6935 46.2943 12.5322 45.817 12.5177 45.1109Z" fill="#010202"/>
<path d="M6.26131 44.3452C5.78925 42.3148 3.74057 42.3148 3.74057 42.3148C2.26784 42.2953 1.52002 43.3492 1.19767 44.0095C1.05864 44.2948 0.992188 44.6087 0.992188 44.9249V45.9714C1.18468 46.9621 2.27777 47.0201 2.27777 47.0201H5.15982V47.8294C5.15982 47.9446 5.17816 48.0598 5.22475 48.1659C5.52037 48.8239 6.2827 48.9722 6.2827 48.9722V44.538C6.28194 44.474 6.27583 44.4085 6.26131 44.3452ZM2.37249 45.7154V44.7759C2.37249 44.7759 2.52755 43.6398 3.70237 43.618C3.73216 43.618 4.85046 43.6255 5.06969 44.7028L5.07733 45.7154H2.37249Z" fill="#010202"/>
<path d="M0.996094 46.5676V48.9925C0.996094 48.9925 1.92724 48.927 2.33744 47.8452V47.2881C2.33744 47.2888 1.27338 47.2776 0.996094 46.5676Z" fill="#010202"/>
<path d="M0 40.5298H35.2042L35.234 49L42.3646 40.5298H73.9557V0H0V40.5298Z" fill="#0FA79D"/>
<path d="M70.4068 10.5601L65.3523 16.8523C65.3523 16.8523 59.9724 11.346 54.3565 13.4442C54.3565 13.4442 47.3741 16.1537 48.7849 23.6617C48.8926 24.2346 49.1027 24.7835 49.4105 25.2811C50.9428 27.7587 56.4839 34.8798 65.2928 25.854L70.5542 31.9136C70.5542 31.9136 60.0908 43.1587 46.5529 34.943C46.5529 34.943 32.6895 25.5627 43.1239 11.1127C43.1247 11.1142 52.8051 -2.63642 70.4068 10.5601Z" fill="white"/>
<path d="M6.59176 9.3202L10.612 14.9718C27.3421 7.86346 25.9236 17.4772 25.9236 17.4772H15.0577C14.9713 17.4772 14.8827 17.4817 14.7964 17.4945C3.18646 19.0153 4.53621 27.4493 5.9906 31.672C6.58794 33.405 7.68027 34.9385 9.16293 36.0384C17.5417 42.2486 26.4545 33.9079 26.4545 33.9079V40.5404H35.2038V13.2824C35.2045 13.2824 33.8449 -3.73101 6.59176 9.3202ZM19.6194 30.3101C16.6694 30.3244 15.4434 28.958 14.9568 28.0696C14.7116 27.6194 14.6436 27.0925 14.7643 26.5948C15.2364 24.6382 17.13 23.8906 17.8603 23.6708C18.0291 23.6211 18.204 23.5955 18.3812 23.5955H25.8335C26.7952 30.3538 19.6194 30.3101 19.6194 30.3101Z" fill="white"/>
</g>
<defs>
<clipPath id="clip0_1635_4139">
<rect width="74" height="49" fill="white"/>
</clipPath>
</defs>
</svg>
